<svg width="28" height="22" viewBox="0 0 28 22" fill="none" xmlns="http://www.w3.org/2000/svg">
<path d="M7.7828 19.9375C9.6583 21.3967 11.4349 22 14 22C19.6364 22 24.2874 17.8012 24.9673 12.375H26.6161C27.7196 12.375 28.3778 11.1511 27.7656 10.2373L24.8207 5.84111C24.2739 5.02472 23.0686 5.02472 22.5216 5.84111L19.5768 10.2373C18.9647 11.1511 19.6228 12.375 20.7263 12.375H22.1749C21.5173 16.2768 18.1075 19.25 14 19.25C12.4895 19.25 11.0734 18.8479 9.85378 18.1455L7.7828 19.9375ZM18.1462 3.85448C16.9265 3.15205 15.5105 2.75 14 2.75C9.89249 2.75 6.48275 5.72315 5.82499 9.625H7.27364C8.37711 9.625 9.03531 10.8489 8.4232 11.7627L5.47835 16.1589C4.93147 16.9753 3.72609 16.9753 3.17923 16.1589L0.234358 11.7627C-0.377733 10.8489 0.280448 9.625 1.38392 9.625H3.03269C3.71258 4.19882 8.36359 0 14 0C16.5651 0 18.3417 0.603364 20.2172 2.0625L18.1462 3.85448Z" fill="white"/>
</svg>
