<svg width="150" height="150" viewBox="0 0 150 150" fill="none" xmlns="http://www.w3.org/2000/svg">
<rect width="150" height="150" rx="75" fill="white"/>
<path d="M95.6874 53.3126C94.9606 52.5798 94.0959 51.9982 93.1432 51.6013C92.1904 51.2044 91.1685 51 90.1364 51C89.1043 51 88.0825 51.2044 87.1297 51.6013C86.177 51.9982 85.3123 52.5798 84.5855 53.3126L74.5 63.4763L64.4145 53.3126C62.9423 51.8404 60.9456 51.0133 58.8636 51.0133C56.7815 51.0133 54.7848 51.8404 53.3126 53.3126C51.8404 54.7848 51.0133 56.7815 51.0133 58.8636C51.0133 60.9456 51.8404 62.9423 53.3126 64.4145L63.4763 74.5L53.3126 84.5855C52.5798 85.3123 51.9982 86.177 51.6013 87.1297C51.2044 88.0825 51 89.1043 51 90.1364C51 91.1685 51.2044 92.1904 51.6013 93.1432C51.9982 94.0959 52.5798 94.9606 53.3126 95.6874C54.0394 96.4202 54.9041 97.0018 55.8568 97.3987C56.8096 97.7956 57.8315 98 58.8636 98C59.8957 98 60.9175 97.7956 61.8703 97.3987C62.823 97.0018 63.6877 96.4202 64.4145 95.6874L74.5 85.5237L84.5855 95.6874C85.3123 96.4202 86.177 97.0018 87.1297 97.3987C88.0825 97.7956 89.1043 98 90.1364 98C91.1685 98 92.1904 97.7956 93.1432 97.3987C94.0959 97.0018 94.9606 96.4202 95.6874 95.6874C96.4202 94.9606 97.0018 94.0959 97.3987 93.1432C97.7956 92.1904 98 91.1685 98 90.1364C98 89.1043 97.7956 88.0825 97.3987 87.1297C97.0018 86.177 96.4202 85.3123 95.6874 84.5855L85.5237 74.5L95.6874 64.4145C96.4202 63.6877 97.0018 62.823 97.3987 61.8703C97.7956 60.9175 98 59.8957 98 58.8636C98 57.8315 97.7956 56.8096 97.3987 55.8568C97.0018 54.9041 96.4202 54.0394 95.6874 53.3126V53.3126Z" fill="black"/>
</svg>
