<svg width="27" height="27" viewBox="0 0 27 27" fill="none" xmlns="http://www.w3.org/2000/svg">
<path d="M16.418 0.335294C12.7031 1.75882 9.44531 3.89118 6.64453 6.73235C3.84375 9.57353 1.74609 12.8706 0.351562 16.6235C0.117188 15.5765 0 14.5412 0 13.5176C0 11.0706 0.600586 8.80882 1.80176 6.73235C3.00293 4.65588 4.63477 3.01471 6.69727 1.80882C8.75977 0.602941 11.0098 0 13.4473 0C14.4082 0 15.3984 0.111765 16.418 0.335294ZM21.1465 2.43529C22.2363 3.2 23.1973 4.11176 24.0293 5.17059C19.4707 6.5 15.5186 8.85588 12.1729 12.2382C8.82715 15.6206 6.50391 19.6 5.20312 24.1765C4.11328 23.3294 3.20508 22.3765 2.47852 21.3176C3.79102 16.7765 6.10547 12.8294 9.42188 9.47647C12.7383 6.12353 16.6465 3.77647 21.1465 2.43529ZM8.26172 25.9765C9.60938 21.7882 11.833 18.1294 14.9326 15C18.0322 11.8706 21.6621 9.61177 25.8223 8.22353C26.291 9.30588 26.6074 10.4529 26.7715 11.6647C23.3496 13.0765 20.3262 15.1059 17.7012 17.7529C15.0762 20.4 13.0664 23.4471 11.6719 26.8941C10.4648 26.7294 9.32812 26.4235 8.26172 25.9765ZM27 27C24.7383 26.4118 22.5879 25.7353 20.5488 24.9706C18.9668 25.9588 17.2676 26.5882 15.4512 26.8588C16.7285 24.4471 18.334 22.2676 20.2676 20.3206C22.2012 18.3735 24.3633 16.7529 26.7539 15.4588C26.5078 17.2471 25.916 18.9176 24.9785 20.4706C25.7402 22.5294 26.4141 24.7059 27 27Z" fill="black"/>
</svg>
