<svg width="300" height="300" viewBox="0 0 300 300" fill="none" xmlns="http://www.w3.org/2000/svg">
<mask id="path-1-inside-1" fill="white">
<path fill-rule="evenodd" clip-rule="evenodd" d="M59.2885 30.1907C26.5444 30.1907 0 56.7351 0 89.4793V159.44C0 192.184 26.5444 218.728 59.2885 218.728H163.043L225.58 270.309V218.728H240.711C273.456 218.728 300 192.184 300 159.44V89.4793C300 56.7351 273.456 30.1907 240.711 30.1907H59.2885Z"/>
</mask>
<path d="M163.043 218.728L175.769 203.299L170.227 198.728H163.043V218.728ZM225.58 270.309L212.854 285.738L245.58 312.731V270.309H225.58ZM225.58 218.728V198.728H205.58V218.728H225.58ZM20 89.4793C20 67.7808 37.5901 50.1907 59.2885 50.1907V10.1907C15.4987 10.1907 -20 45.6894 -20 89.4793H20ZM20 159.44V89.4793H-20V159.44H20ZM59.2885 198.728C37.5901 198.728 20 181.138 20 159.44H-20C-20 203.23 15.4987 238.728 59.2885 238.728V198.728ZM163.043 198.728H59.2885V238.728H163.043V198.728ZM238.306 254.88L175.769 203.299L150.317 234.157L212.854 285.738L238.306 254.88ZM205.58 218.728V270.309H245.58V218.728H205.58ZM240.711 198.728H225.58V238.728H240.711V198.728ZM280 159.44C280 181.138 262.41 198.728 240.711 198.728V238.728C284.501 238.728 320 203.23 320 159.44H280ZM280 89.4793V159.44H320V89.4793H280ZM240.711 50.1907C262.41 50.1907 280 67.7808 280 89.4793H320C320 45.6894 284.501 10.1907 240.711 10.1907V50.1907ZM59.2885 50.1907H240.711V10.1907H59.2885V50.1907Z" fill="white" mask="url(#path-1-inside-1)"/>
</svg>
