<svg width="300" height="300" viewBox="0 0 300 300" fill="none" xmlns="http://www.w3.org/2000/svg">
<path d="M141.457 73.1477L150 87.189L158.543 73.1479C170.4 53.661 195.226 43 219.231 43C240.287 43 257.93 49.5085 270.194 60.6994C282.349 71.7902 290 88.1749 290 109.638C290 127.948 282.45 152.556 264.979 173.097L264.978 173.097C246.541 194.778 235.951 206.006 200.06 229.454L200.06 229.454C182.101 241.187 168.712 247.956 159.983 251.754C155.618 253.653 152.417 254.81 150.391 255.474C150.256 255.518 150.125 255.56 150 255.601C149.875 255.56 149.744 255.518 149.609 255.474C147.583 254.81 144.382 253.653 140.017 251.754C131.288 247.956 117.899 241.187 99.9401 229.454L99.9398 229.454C64.0484 206.006 53.4595 194.778 35.0216 173.097L35.0211 173.097C17.5504 152.556 10 127.948 10 109.638C10 88.1749 17.6514 71.7902 29.8059 60.6994C42.0702 49.5085 59.7128 43 80.769 43C104.774 43 129.601 53.6611 141.457 73.1477Z" fill="white" stroke="white" stroke-width="20"/>
</svg>
