<svg width="27" height="28" viewBox="0 0 27 28" fill="none" xmlns="http://www.w3.org/2000/svg">
<path d="M9.42837 26.2827V22.0018C9.42837 20.9091 10.3341 20.0232 11.4515 20.0232H15.5358C16.0724 20.0232 16.587 20.2317 16.9664 20.6027C17.3458 20.9738 17.5589 21.4771 17.5589 22.0018V26.2827C17.5555 26.737 17.7377 27.1738 18.0649 27.4962C18.3922 27.8187 18.8375 28 19.3021 28H22.0886C23.39 28.0033 24.6393 27.5 25.5607 26.6011C26.4821 25.7023 27 24.4818 27 23.2089V11.0136C27 9.98544 26.534 9.01017 25.7276 8.35053L16.2484 0.946216C14.5994 -0.352013 12.2368 -0.310097 10.6371 1.04577L1.37418 8.35053C0.529684 8.99073 0.0249427 9.96888 0 11.0136V23.1965C0 25.8494 2.19891 28 4.9114 28H7.63431C8.59911 28 9.38321 27.2387 9.3902 26.2951L9.42837 26.2827Z" fill="black"/>
</svg>
