<svg width="27" height="27" viewBox="0 0 27 27" fill="none" xmlns="http://www.w3.org/2000/svg">
<path d="M12.8762 3H6.76507C4.00365 3 1.76508 5.23858 1.76508 8V18C1.76508 20.7614 4.00365 23 6.76508 23H12.8762" stroke="white" stroke-width="3"/>
<path d="M24.8214 13.7706C25.2119 13.3801 25.2119 12.7469 24.8214 12.3564L18.4574 5.99242C18.0669 5.6019 17.4337 5.6019 17.0432 5.99242C16.6527 6.38295 16.6527 7.01611 17.0432 7.40664L22.7001 13.0635L17.0432 18.7203C16.6527 19.1109 16.6527 19.744 17.0432 20.1346C17.4337 20.5251 18.0669 20.5251 18.4574 20.1346L24.8214 13.7706ZM9.7774 14.0635L24.1143 14.0635V12.0635L9.7774 12.0635V14.0635Z" fill="white"/>
</svg>
