<svg width="27" height="27" viewBox="0 0 27 27" fill="none" xmlns="http://www.w3.org/2000/svg">
<path d="M13.1111 3H7C4.23857 3 2 5.23858 2 8V18C2 20.7614 4.23858 23 7 23H13.1111" stroke="black" stroke-width="3"/>
<path d="M25.0563 13.7706C25.4468 13.3801 25.4468 12.7469 25.0563 12.3564L18.6923 5.99242C18.3018 5.6019 17.6686 5.6019 17.2781 5.99242C16.8876 6.38295 16.8876 7.01611 17.2781 7.40664L22.935 13.0635L17.2781 18.7203C16.8876 19.1109 16.8876 19.744 17.2781 20.1346C17.6686 20.5251 18.3018 20.5251 18.6923 20.1346L25.0563 13.7706ZM10.0123 14.0635L24.3492 14.0635V12.0635L10.0123 12.0635V14.0635Z" fill="black"/>
</svg>
