<svg width="150" height="150" viewBox="0 0 150 150" fill="none" xmlns="http://www.w3.org/2000/svg">
<rect width="150" height="150" rx="75" fill="#3864FF"/>
<mask id="path-2-inside-1" fill="white">
<path d="M47.9093 107C47.1994 107.002 46.4976 106.85 45.8525 106.554C45.2073 106.258 44.6343 105.825 44.1732 105.285C43.7121 104.746 43.3739 104.112 43.1821 103.429C42.9902 102.745 42.9494 102.028 43.0624 101.327L45.1197 88.3318C45.2751 87.3088 45.756 86.3631 46.4912 85.635L86.9402 45.1834C88.3451 43.785 90.2466 43 92.2288 43C94.2109 43 96.1124 43.785 97.5173 45.1834L104.817 52.4833C106.215 53.8883 107 55.7899 107 57.7722C107 59.7545 106.215 61.6561 104.817 63.0612L64.3678 103.513C63.6398 104.248 62.6942 104.729 61.6712 104.884L48.6764 106.942C48.4223 106.979 48.166 106.998 47.9093 107ZM92.2288 47.6477C91.8558 47.6463 91.4862 47.7184 91.1412 47.86C90.7961 48.0017 90.4824 48.21 90.2179 48.473L49.7806 88.9479C49.7601 88.9652 49.7434 88.9864 49.7314 89.0104C49.7194 89.0344 49.7124 89.0606 49.7109 89.0873L47.6536 102.06C47.6477 102.099 47.6511 102.14 47.6637 102.178C47.6762 102.216 47.6974 102.25 47.7257 102.278C47.7539 102.307 47.7884 102.328 47.8263 102.34C47.8643 102.353 47.9046 102.356 47.9441 102.35L60.9389 100.293C60.9847 100.284 61.0259 100.259 61.0552 100.223L101.504 59.7832C102.036 59.2513 102.334 58.5301 102.334 57.778C102.334 57.026 102.036 56.3048 101.504 55.7729L94.228 48.473C93.9661 48.2098 93.6544 48.0013 93.3112 47.8596C92.968 47.7179 92.6001 47.6459 92.2288 47.6477Z"/>
<path d="M100.435 66.4786C100.129 66.4804 99.8256 66.4217 99.5423 66.306C99.2591 66.1904 99.0015 66.0199 98.7843 65.8044L84.1971 51.2163C83.7609 50.78 83.5158 50.1884 83.5158 49.5715C83.5158 48.9545 83.7609 48.3629 84.1971 47.9267C84.6333 47.4904 85.2249 47.2454 85.8418 47.2454C86.4587 47.2454 87.0503 47.4904 87.4865 47.9267L102.074 62.5148C102.29 62.7307 102.461 62.9871 102.578 63.2694C102.695 63.5516 102.755 63.8541 102.755 64.1596C102.755 64.4651 102.695 64.7677 102.578 65.0499C102.461 65.3321 102.29 65.5885 102.074 65.8044C101.638 66.2367 101.049 66.4791 100.435 66.4786ZM63.0428 103.873C62.4289 103.874 61.8397 103.631 61.4039 103.199L46.8051 88.5991C46.4051 88.1562 46.1909 87.5764 46.2066 86.9798C46.2223 86.3833 46.4669 85.8156 46.8896 85.3944C47.3123 84.9731 47.8808 84.7306 48.4774 84.7169C49.074 84.7033 49.6529 84.9197 50.0944 85.3212L64.6933 99.9093C65.0171 100.235 65.2372 100.65 65.3257 101.1C65.4142 101.551 65.3672 102.018 65.1906 102.442C65.014 102.866 64.7158 103.228 64.3335 103.483C63.9512 103.738 63.5021 103.873 63.0428 103.873Z"/>
<path d="M55.7433 96.5848C55.2806 96.5899 54.8269 96.4567 54.4403 96.2023C54.0538 95.9479 53.7519 95.584 53.5734 95.157C53.3949 94.73 53.3478 94.2595 53.4383 93.8057C53.5288 93.3518 53.7526 92.9353 54.0812 92.6094L91.4965 55.2382C91.7003 54.9816 91.9559 54.771 92.2468 54.6202C92.5377 54.4693 92.8571 54.3817 93.1842 54.363C93.5113 54.3443 93.8387 54.395 94.1448 54.5117C94.451 54.6283 94.729 54.8084 94.9607 55.0401C95.1923 55.2718 95.3724 55.5499 95.4891 55.856C95.6058 56.1622 95.6565 56.4896 95.6378 56.8167C95.6191 57.1438 95.5314 57.4633 95.3806 57.7542C95.2298 58.045 95.0192 58.3008 94.7626 58.5045L57.3938 95.9223C56.9533 96.3532 56.3596 96.5915 55.7433 96.5848Z"/>
</mask>
<path d="M47.9093 107C47.1994 107.002 46.4976 106.85 45.8525 106.554C45.2073 106.258 44.6343 105.825 44.1732 105.285C43.7121 104.746 43.3739 104.112 43.1821 103.429C42.9902 102.745 42.9494 102.028 43.0624 101.327L45.1197 88.3318C45.2751 87.3088 45.756 86.3631 46.4912 85.635L86.9402 45.1834C88.3451 43.785 90.2466 43 92.2288 43C94.2109 43 96.1124 43.785 97.5173 45.1834L104.817 52.4833C106.215 53.8883 107 55.7899 107 57.7722C107 59.7545 106.215 61.6561 104.817 63.0612L64.3678 103.513C63.6398 104.248 62.6942 104.729 61.6712 104.884L48.6764 106.942C48.4223 106.979 48.166 106.998 47.9093 107ZM92.2288 47.6477C91.8558 47.6463 91.4862 47.7184 91.1412 47.86C90.7961 48.0017 90.4824 48.21 90.2179 48.473L49.7806 88.9479C49.7601 88.9652 49.7434 88.9864 49.7314 89.0104C49.7194 89.0344 49.7124 89.0606 49.7109 89.0873L47.6536 102.06C47.6477 102.099 47.6511 102.14 47.6637 102.178C47.6762 102.216 47.6974 102.25 47.7257 102.278C47.7539 102.307 47.7884 102.328 47.8263 102.34C47.8643 102.353 47.9046 102.356 47.9441 102.35L60.9389 100.293C60.9847 100.284 61.0259 100.259 61.0552 100.223L101.504 59.7832C102.036 59.2513 102.334 58.5301 102.334 57.778C102.334 57.026 102.036 56.3048 101.504 55.7729L94.228 48.473C93.9661 48.2098 93.6544 48.0013 93.3112 47.8596C92.968 47.7179 92.6001 47.6459 92.2288 47.6477Z" fill="#0F0F0F"/>
<path d="M100.435 66.4786C100.129 66.4804 99.8256 66.4217 99.5423 66.306C99.2591 66.1904 99.0015 66.0199 98.7843 65.8044L84.1971 51.2163C83.7609 50.78 83.5158 50.1884 83.5158 49.5715C83.5158 48.9545 83.7609 48.3629 84.1971 47.9267C84.6333 47.4904 85.2249 47.2454 85.8418 47.2454C86.4587 47.2454 87.0503 47.4904 87.4865 47.9267L102.074 62.5148C102.29 62.7307 102.461 62.9871 102.578 63.2694C102.695 63.5516 102.755 63.8541 102.755 64.1596C102.755 64.4651 102.695 64.7677 102.578 65.0499C102.461 65.3321 102.29 65.5885 102.074 65.8044C101.638 66.2367 101.049 66.4791 100.435 66.4786ZM63.0428 103.873C62.4289 103.874 61.8397 103.631 61.4039 103.199L46.8051 88.5991C46.4051 88.1562 46.1909 87.5764 46.2066 86.9798C46.2223 86.3833 46.4669 85.8156 46.8896 85.3944C47.3123 84.9731 47.8808 84.7306 48.4774 84.7169C49.074 84.7033 49.6529 84.9197 50.0944 85.3212L64.6933 99.9093C65.0171 100.235 65.2372 100.65 65.3257 101.1C65.4142 101.551 65.3672 102.018 65.1906 102.442C65.014 102.866 64.7158 103.228 64.3335 103.483C63.9512 103.738 63.5021 103.873 63.0428 103.873Z" fill="#0F0F0F"/>
<path d="M55.7433 96.5848C55.2806 96.5899 54.8269 96.4567 54.4403 96.2023C54.0538 95.9479 53.7519 95.584 53.5734 95.157C53.3949 94.73 53.3478 94.2595 53.4383 93.8057C53.5288 93.3518 53.7526 92.9353 54.0812 92.6094L91.4965 55.2382C91.7003 54.9816 91.9559 54.771 92.2468 54.6202C92.5377 54.4693 92.8571 54.3817 93.1842 54.363C93.5113 54.3443 93.8387 54.395 94.1448 54.5117C94.451 54.6283 94.729 54.8084 94.9607 55.0401C95.1923 55.2718 95.3724 55.5499 95.4891 55.856C95.6058 56.1622 95.6565 56.4896 95.6378 56.8167C95.6191 57.1438 95.5314 57.4633 95.3806 57.7542C95.2298 58.045 95.0192 58.3008 94.7626 58.5045L57.3938 95.9223C56.9533 96.3532 56.3596 96.5915 55.7433 96.5848Z" fill="#0F0F0F"/>
<path d="M47.9093 107L47.9255 112L47.9371 112L47.9487 112L47.9093 107ZM43.0624 101.327L47.9987 102.123L48.0009 102.109L43.0624 101.327ZM45.1197 88.3318L50.0582 89.1136L50.0606 89.0981L50.063 89.0826L45.1197 88.3318ZM46.4912 85.635L50.0095 89.1877L50.0182 89.1791L50.0269 89.1704L46.4912 85.635ZM86.9402 45.1834L83.4129 41.6396L83.4045 41.648L86.9402 45.1834ZM92.2288 43V48V43ZM97.5173 45.1834L101.053 41.648L101.045 41.6396L97.5173 45.1834ZM104.817 52.4833L108.361 48.9563L108.352 48.9479L104.817 52.4833ZM104.817 63.0612L108.352 66.5966L108.361 66.5882L104.817 63.0612ZM64.3678 103.513L60.8322 99.9773L60.8235 99.986L60.8149 99.9947L64.3678 103.513ZM61.6712 104.884L60.9203 99.9411L60.9048 99.9435L60.8893 99.9459L61.6712 104.884ZM48.6764 106.942L49.3907 111.891L49.4245 111.886L49.4583 111.88L48.6764 106.942ZM92.2288 47.6477L92.2097 52.6477L92.2314 52.6477L92.2531 52.6476L92.2288 47.6477ZM90.2179 48.473L86.6918 44.9281L86.6863 44.9336L86.6808 44.9391L90.2179 48.473ZM49.7806 88.9479L53.0076 92.7671L53.1687 92.631L53.3178 92.4818L49.7806 88.9479ZM49.7109 89.0873L54.6492 89.8705L54.6881 89.6252L54.7025 89.3772L49.7109 89.0873ZM47.6536 102.06L42.7153 101.277L42.7116 101.3L42.7081 101.323L47.6536 102.06ZM47.9441 102.35L48.6805 107.296L48.7033 107.292L48.726 107.289L47.9441 102.35ZM60.9389 100.293L61.7208 105.231L61.8031 105.218L61.8848 105.203L60.9389 100.293ZM61.0552 100.223L57.52 96.6872L57.3337 96.8735L57.1681 97.0783L61.0552 100.223ZM101.504 59.7832L105.039 63.3191L105.04 63.3179L101.504 59.7832ZM102.334 57.778L107.334 57.778L102.334 57.778ZM101.504 55.7729L97.9628 59.3027L97.9678 59.3076L101.504 55.7729ZM94.228 48.473L90.6837 51.9998L90.6867 52.0028L94.228 48.473ZM100.435 66.4786L100.439 61.4786L100.422 61.4786L100.406 61.4787L100.435 66.4786ZM98.7843 65.8044L95.2486 69.3398L95.2558 69.347L95.2631 69.3542L98.7843 65.8044ZM84.1971 51.2163L80.6614 54.7517L80.6614 54.7517L84.1971 51.2163ZM87.4865 47.9267L91.0221 44.3913L91.0221 44.3913L87.4865 47.9267ZM102.074 62.5148L98.538 66.0502L98.54 66.0522L102.074 62.5148ZM102.074 65.8044L105.595 69.3543L105.601 69.3481L105.607 69.3418L102.074 65.8044ZM63.0428 103.873L63.0467 98.8731L63.0388 98.8731L63.0428 103.873ZM61.4039 103.199L57.8682 106.734L57.8755 106.742L57.8827 106.749L61.4039 103.199ZM46.8051 88.5991L43.0939 91.9498L43.1793 92.0444L43.2694 92.1346L46.8051 88.5991ZM50.0944 85.3212L53.6287 81.7843L53.5455 81.7012L53.4585 81.6221L50.0944 85.3212ZM64.6933 99.9093L68.2394 96.3844L68.2335 96.3785L68.2275 96.3725L64.6933 99.9093ZM55.7433 96.5848L55.7974 91.5851L55.7432 91.5846L55.6891 91.5851L55.7433 96.5848ZM54.0812 92.6094L57.602 96.1596L57.6084 96.1533L57.6147 96.147L54.0812 92.6094ZM91.4965 55.2382L95.0299 58.7758L95.2333 58.5727L95.412 58.3476L91.4965 55.2382ZM94.7626 58.5045L91.6529 54.5892L91.4279 54.768L91.2248 54.9713L94.7626 58.5045ZM57.3938 95.9223L60.8899 99.4969L60.9109 99.4763L60.9317 99.4555L57.3938 95.9223ZM47.893 102C47.9085 102 47.9239 102.003 47.938 102.01L43.767 111.098C45.0714 111.697 46.4904 112.005 47.9255 112L47.893 102ZM47.938 102.01C47.9521 102.016 47.9645 102.026 47.9745 102.037L40.3719 108.533C41.3041 109.625 42.4626 110.5 43.767 111.098L47.938 102.01ZM47.9745 102.037C47.9846 102.049 47.9919 102.063 47.9961 102.078L38.3681 104.78C38.7559 106.162 39.4396 107.442 40.3719 108.533L47.9745 102.037ZM47.9961 102.078C48.0002 102.092 48.0011 102.108 47.9986 102.123L38.1261 100.532C37.8977 101.949 37.9803 103.398 38.3681 104.78L47.9961 102.078ZM48.0009 102.109L50.0582 89.1136L40.1812 87.55L38.1239 100.546L48.0009 102.109ZM50.063 89.0826C50.0569 89.1224 50.0382 89.1593 50.0095 89.1877L42.9729 82.0823C41.4738 83.5669 40.4932 85.4951 40.1764 87.581L50.063 89.0826ZM50.0269 89.1704L90.4758 48.7188L83.4045 41.648L42.9556 82.0996L50.0269 89.1704ZM90.4674 48.7272C90.9354 48.2614 91.5687 48 92.2288 48V38C88.9245 38 85.7548 39.3086 83.4129 41.6396L90.4674 48.7272ZM92.2288 48C92.8888 48 93.5221 48.2614 93.9901 48.7272L101.045 41.6396C98.7027 39.3086 95.533 38 92.2288 38V48ZM93.9817 48.7188L101.281 56.0187L108.352 48.9479L101.053 41.648L93.9817 48.7188ZM101.273 56.0103C101.738 56.4783 102 57.1118 102 57.7722H112C112 54.4681 110.692 51.2983 108.361 48.9563L101.273 56.0103ZM102 57.7722C102 58.4327 101.738 59.0661 101.273 59.5341L108.361 66.5882C110.692 64.2461 112 61.0764 112 57.7722H102ZM101.281 59.5257L60.8322 99.9773L67.9035 107.048L108.352 66.5966L101.281 59.5257ZM60.8149 99.9947C60.8433 99.966 60.8803 99.9472 60.9203 99.9411L62.4221 109.828C64.5081 109.511 66.4362 108.53 67.9207 107.031L60.8149 99.9947ZM60.8893 99.9459L47.8945 102.003L49.4583 111.88L62.4531 109.823L60.8893 99.9459ZM47.9621 101.993C47.9315 101.998 47.9007 102 47.8698 102L47.9487 112C48.4313 111.996 48.9131 111.96 49.3907 111.891L47.9621 101.993ZM92.2478 42.6477C91.2173 42.6438 90.1961 42.8432 89.2427 43.2345L93.0396 52.4856C92.7763 52.5937 92.4943 52.6487 92.2097 52.6477L92.2478 42.6477ZM89.2427 43.2345C88.2893 43.6258 87.4225 44.2013 86.6918 44.9281L93.7441 52.0179C93.5423 52.2186 93.3029 52.3775 93.0396 52.4856L89.2427 43.2345ZM86.6808 44.9391L46.2434 85.414L53.3178 92.4818L93.7551 52.0069L86.6808 44.9391ZM46.5536 85.1286C46.0152 85.5836 45.5747 86.1435 45.2592 86.7745L54.2036 91.2464C53.9121 91.8294 53.5051 92.3467 53.0076 92.7671L46.5536 85.1286ZM45.2592 86.7745C44.9439 87.4051 44.7602 88.0934 44.7193 88.7975L54.7025 89.3772C54.6647 90.0278 54.4949 90.6637 54.2036 91.2464L45.2592 86.7745ZM44.7726 88.3042L42.7153 101.277L52.5918 102.843L54.6492 89.8705L44.7726 88.3042ZM42.7081 101.323C42.5872 102.136 42.6582 102.965 42.9156 103.745L52.4118 100.611C52.6441 101.314 52.7082 102.063 52.599 102.796L42.7081 101.323ZM42.9156 103.745C43.1729 104.524 43.6094 105.233 44.19 105.814L51.2613 98.7428C51.7854 99.2669 52.1794 99.9066 52.4118 100.611L42.9156 103.745ZM44.19 105.814C44.7707 106.394 45.4793 106.831 46.2591 107.088L49.3935 97.5922C50.0975 97.8246 50.7372 98.2187 51.2613 98.7428L44.19 105.814ZM46.2591 107.088C47.0389 107.346 47.8682 107.417 48.6805 107.296L47.2078 97.4049C47.941 97.2957 48.6896 97.3599 49.3935 97.5922L46.2591 107.088ZM48.726 107.289L61.7208 105.231L60.157 95.3544L47.1622 97.4119L48.726 107.289ZM61.8848 105.203C63.0882 104.971 64.1712 104.321 64.9423 103.368L57.1681 97.0783C57.8806 96.1976 58.8812 95.5974 59.993 95.3832L61.8848 105.203ZM64.5903 103.759L105.039 63.3191L97.969 56.2473L57.52 96.6872L64.5903 103.759ZM105.04 63.3179C106.509 61.8484 107.334 59.8557 107.334 57.778L97.3344 57.778C97.3344 57.2044 97.5622 56.6542 97.9678 56.2485L105.04 63.3179ZM107.334 57.778C107.334 55.7003 106.509 53.7077 105.04 52.2382L97.9678 59.3076C97.5622 58.9018 97.3344 58.3517 97.3344 57.778L107.334 57.778ZM105.045 52.2431L97.7692 44.9432L90.6867 52.0028L97.9628 59.3027L105.045 52.2431ZM97.7722 44.9462C97.0428 44.2132 96.175 43.6325 95.2191 43.2379L91.4033 52.4813C91.1339 52.37 90.8893 52.2064 90.6837 51.9998L97.7722 44.9462ZM95.2191 43.2379C94.2633 42.8433 93.2385 42.6427 92.2044 42.6478L92.2531 52.6476C91.9616 52.6491 91.6727 52.5925 91.4033 52.4813L95.2191 43.2379ZM100.406 61.4787C100.758 61.4767 101.107 61.5442 101.433 61.6773L97.6516 70.9348C98.544 71.2993 99.4997 71.4841 100.464 71.4785L100.406 61.4787ZM101.433 61.6773C101.759 61.8105 102.056 62.0067 102.305 62.2546L95.2631 69.3542C95.9475 70.0331 96.7592 70.5702 97.6516 70.9348L101.433 61.6773ZM102.32 62.269L87.7327 47.6809L80.6614 54.7517L95.2486 69.3398L102.32 62.269ZM87.7327 47.6809C88.2342 48.1823 88.5158 48.8624 88.5158 49.5715H78.5158C78.5158 51.5144 79.2876 53.3778 80.6614 54.7517L87.7327 47.6809ZM88.5158 49.5715C88.5158 50.2805 88.2342 50.9606 87.7327 51.4621L80.6614 44.3913C79.2876 45.7652 78.5158 47.6286 78.5158 49.5715H88.5158ZM87.7327 51.4621C87.2313 51.9636 86.5511 52.2454 85.8418 52.2454V42.2454C83.8987 42.2454 82.0353 43.0173 80.6614 44.3913L87.7327 51.4621ZM85.8418 52.2454C85.1325 52.2454 84.4523 51.9636 83.9508 51.4621L91.0221 44.3913C89.6483 43.0173 87.7848 42.2454 85.8418 42.2454V52.2454ZM83.9508 51.4621L98.538 66.0502L105.609 58.9794L91.0221 44.3913L83.9508 51.4621ZM98.54 66.0522C98.2913 65.8038 98.094 65.5087 97.9593 65.184L107.197 61.3548C106.829 60.4656 106.288 59.6577 105.607 58.9774L98.54 66.0522ZM97.9593 65.184C97.8247 64.8592 97.7554 64.5111 97.7554 64.1596H107.755C107.755 63.1971 107.566 62.244 107.197 61.3548L97.9593 65.184ZM97.7554 64.1596C97.7554 63.8082 97.8247 63.4601 97.9593 63.1353L107.197 66.9645C107.566 66.0752 107.755 65.1221 107.755 64.1596H97.7554ZM97.9593 63.1353C98.0939 62.8106 98.2912 62.5155 98.54 62.267L105.607 69.3418C106.288 68.6615 106.829 67.8537 107.197 66.9645L97.9593 63.1353ZM98.5525 62.2545C99.0541 61.757 99.7322 61.4781 100.439 61.4786L100.431 71.4786C102.365 71.4802 104.222 70.7165 105.595 69.3543L98.5525 62.2545ZM63.0388 98.8731C63.7454 98.8725 64.4234 99.1515 64.925 99.649L57.8827 106.749C59.256 108.111 61.1124 108.875 63.0467 108.873L63.0388 98.8731ZM64.9395 99.6635L50.3407 85.0637L43.2694 92.1346L57.8682 106.734L64.9395 99.6635ZM50.5162 85.2484C50.9764 85.7582 51.223 86.4253 51.2049 87.1117L41.2083 86.848C41.1588 88.7275 41.8338 90.5542 43.0939 91.9498L50.5162 85.2484ZM51.2049 87.1117C51.1868 87.7981 50.9054 88.4513 50.419 88.936L43.3602 81.8527C42.0284 83.1799 41.2579 84.9685 41.2083 86.848L51.2049 87.1117ZM50.419 88.936C49.9325 89.4208 49.2783 89.7 48.5915 89.7156L48.3632 79.7182C46.4833 79.7612 44.692 80.5255 43.3602 81.8527L50.419 88.936ZM48.5915 89.7156C47.9048 89.7313 47.2385 89.4823 46.7304 89.0202L53.4585 81.6221C52.0674 80.357 50.2431 79.6753 48.3632 79.7182L48.5915 89.7156ZM46.5602 88.858L61.159 103.446L68.2275 96.3725L53.6287 81.7843L46.5602 88.858ZM61.1471 103.434C60.7745 103.059 60.5212 102.582 60.4194 102.064L70.232 100.137C69.9531 98.7166 69.2597 97.4109 68.2394 96.3844L61.1471 103.434ZM60.4194 102.064C60.3175 101.545 60.3716 101.008 60.5748 100.52L69.8064 104.364C70.3628 103.028 70.5109 101.557 70.232 100.137L60.4194 102.064ZM60.5748 100.52C60.778 100.032 61.1212 99.6152 61.5611 99.3221L67.1059 107.644C68.3104 106.841 69.2501 105.7 69.8064 104.364L60.5748 100.52ZM61.5611 99.3221C62.0011 99.0289 62.518 98.8727 63.0467 98.8731L63.0388 108.873C64.4862 108.874 65.9014 108.447 67.1059 107.644L61.5611 99.3221ZM55.6891 91.5851C56.2217 91.5794 56.7438 91.7327 57.1887 92.0254L51.6919 100.379C52.91 101.181 54.3396 101.6 55.7976 101.585L55.6891 91.5851ZM57.1887 92.0254C57.6337 92.3182 57.981 92.737 58.1864 93.2283L48.9604 97.0857C49.5228 98.4309 50.4739 99.5777 51.6919 100.379L57.1887 92.0254ZM58.1864 93.2283C58.3918 93.7196 58.4459 94.2609 58.3418 94.7831L48.5348 92.8282C48.2498 94.2581 48.3979 95.7405 48.9604 97.0857L58.1864 93.2283ZM58.3418 94.7831C58.2377 95.3053 57.9802 95.7846 57.602 96.1596L50.5604 89.0593C49.5251 90.086 48.8198 91.3983 48.5348 92.8282L58.3418 94.7831ZM57.6147 96.147L95.0299 58.7758L87.963 51.7006L50.5478 89.0718L57.6147 96.147ZM95.412 58.3476C95.1775 58.6429 94.8833 58.8853 94.5485 59.0589L89.9451 50.1815C89.0286 50.6567 88.223 51.3203 87.581 52.1287L95.412 58.3476ZM94.5485 59.0589C94.2138 59.2324 93.8461 59.3333 93.4696 59.3548L92.8988 49.3712C91.8681 49.4301 90.8615 49.7062 89.9451 50.1815L94.5485 59.0589ZM93.4696 59.3548C93.0931 59.3764 92.7163 59.3181 92.364 59.1838L95.9257 49.8395C94.961 49.4718 93.9295 49.3122 92.8988 49.3712L93.4696 59.3548ZM92.364 59.1838C92.0116 59.0494 91.6916 58.8422 91.425 58.5755L98.4963 51.5047C97.7664 50.7747 96.8904 50.2073 95.9257 49.8395L92.364 59.1838ZM91.425 58.5755C91.1584 58.3089 90.9512 57.989 90.8169 57.6367L100.161 54.0754C99.7936 53.1107 99.2262 52.2347 98.4963 51.5047L91.425 58.5755ZM90.8169 57.6367C90.6827 57.2844 90.6244 56.9077 90.6459 56.5313L100.63 57.1021C100.689 56.0715 100.529 55.04 100.161 54.0754L90.8169 57.6367ZM90.6459 56.5313C90.6674 56.155 90.7682 55.7874 90.9418 55.4527L99.8194 60.0557C100.295 59.1392 100.571 58.1326 100.63 57.1021L90.6459 56.5313ZM90.9418 55.4527C91.1153 55.118 91.3577 54.8237 91.6529 54.5892L97.8723 62.4199C98.6807 61.7778 99.3443 60.9721 99.8194 60.0557L90.9418 55.4527ZM91.2248 54.9713L53.856 92.3891L60.9317 99.4555L98.3005 62.0378L91.2248 54.9713ZM53.8978 92.3477C54.4048 91.8518 55.0881 91.5775 55.7974 91.5851L55.6893 101.585C57.6311 101.606 59.5017 100.855 60.8899 99.4969L53.8978 92.3477Z" fill="white" mask="url(#path-2-inside-1)"/>
</svg>
