<svg width="300" height="300" viewBox="0 0 300 300" fill="none" xmlns="http://www.w3.org/2000/svg">
<path d="M219.231 33C192.834 33 164.177 44.6493 150 67.95C135.824 44.6493 107.166 33 80.769 33C34.585 33 0 61.6206 0 109.638C0 130.348 8.41205 157.247 27.4038 179.576C46.3942 201.906 57.6911 213.797 94.4705 237.826C131.25 261.855 150 266 150 266C150 266 168.75 261.855 205.529 237.826C242.308 213.797 253.606 201.906 272.596 179.576C291.588 157.247 300 130.348 300 109.638C300 61.6206 265.415 33 219.231 33Z" fill="#FF5151"/>
</svg>
