<svg width="300" height="287" viewBox="0 0 300 287" fill="none" xmlns="http://www.w3.org/2000/svg">
<path d="M122.056 226C125.695 226 129.185 224.551 131.759 221.973C134.332 219.394 135.778 215.897 135.778 212.25V129.75C135.778 126.103 134.332 122.606 131.759 120.027C129.185 117.449 125.695 116 122.056 116C118.416 116 114.926 117.449 112.352 120.027C109.779 122.606 108.333 126.103 108.333 129.75V212.25C108.333 215.897 109.779 219.394 112.352 221.973C114.926 224.551 118.416 226 122.056 226ZM259.278 61H204.389V47.25C204.389 36.3098 200.052 25.8177 192.331 18.0818C184.611 10.346 174.14 6 163.222 6H135.778C124.86 6 114.389 10.346 106.669 18.0818C98.9483 25.8177 94.6111 36.3098 94.6111 47.25V61H39.7222C36.0829 61 32.5926 62.4487 30.0191 65.0273C27.4457 67.6059 26 71.1033 26 74.75C26 78.3967 27.4457 81.8941 30.0191 84.4727C32.5926 87.0513 36.0829 88.5 39.7222 88.5H53.4444V239.75C53.4444 250.69 57.7816 261.182 65.5019 268.918C73.2221 276.654 83.693 281 94.6111 281H204.389C215.307 281 225.778 276.654 233.498 268.918C241.218 261.182 245.556 250.69 245.556 239.75V88.5H259.278C262.917 88.5 266.407 87.0513 268.981 84.4727C271.554 81.8941 273 78.3967 273 74.75C273 71.1033 271.554 67.6059 268.981 65.0273C266.407 62.4487 262.917 61 259.278 61ZM122.056 47.25C122.056 43.6033 123.501 40.1059 126.075 37.5273C128.648 34.9487 132.138 33.5 135.778 33.5H163.222C166.862 33.5 170.352 34.9487 172.925 37.5273C175.499 40.1059 176.944 43.6033 176.944 47.25V61H122.056V47.25ZM218.111 239.75C218.111 243.397 216.665 246.894 214.092 249.473C211.519 252.051 208.028 253.5 204.389 253.5H94.6111C90.9718 253.5 87.4815 252.051 84.908 249.473C82.3346 246.894 80.8889 243.397 80.8889 239.75V88.5H218.111V239.75ZM176.944 226C180.584 226 184.074 224.551 186.648 221.973C189.221 219.394 190.667 215.897 190.667 212.25V129.75C190.667 126.103 189.221 122.606 186.648 120.027C184.074 117.449 180.584 116 176.944 116C173.305 116 169.815 117.449 167.241 120.027C164.668 122.606 163.222 126.103 163.222 129.75V212.25C163.222 215.897 164.668 219.394 167.241 221.973C169.815 224.551 173.305 226 176.944 226Z" fill="white"/>
</svg>
