<svg width="300" height="300" viewBox="0 0 300 300" fill="none" xmlns="http://www.w3.org/2000/svg">
<circle cx="150" cy="150" r="150" fill="white"/>
<path d="M120.08 64.632C117.607 57.5746 109.826 53.7814 103.15 57.1502C90.1473 63.7111 78.6206 72.9543 69.3601 84.325C57.2383 99.2089 49.4723 117.157 46.922 136.183C44.3717 155.208 47.1366 174.568 54.9105 192.119C62.6845 209.67 75.1641 224.727 90.9676 235.622C106.771 246.518 125.282 252.827 144.45 253.852C163.618 254.876 182.696 250.576 199.571 241.426C216.445 232.277 230.459 218.636 240.059 202.013C247.393 189.315 251.933 175.254 253.441 160.769C254.215 153.33 247.903 147.408 240.428 147.606V147.606C232.952 147.804 227.174 154.067 226.06 161.462C224.632 170.937 221.44 180.103 216.608 188.469C209.507 200.763 199.143 210.852 186.663 217.619C174.182 224.386 160.072 227.567 145.895 226.809C131.718 226.051 118.028 221.385 106.339 213.327C94.6512 205.268 85.4212 194.132 79.6715 181.151C73.9219 168.17 71.8769 153.852 73.7632 139.781C75.6494 125.709 81.3932 112.435 90.3585 101.427C96.4597 93.9351 103.891 87.6922 112.239 82.988C118.754 79.3167 122.554 71.6894 120.08 64.632V64.632Z" fill="#242424"/>
</svg>
